<svg width="196" height="149" viewBox="0 0 196 149" fill="none" xmlns="http://www.w3.org/2000/svg">
<circle cx="47.6261" cy="41.2212" r="20" transform="rotate(-6.89889 47.6261 41.2212)" fill="#ED2724" stroke="black" stroke-width="10"/>
<path d="M62.927 45.5128C31.7836 53.1335 24.2897 111.197 24.2897 111.197L174.085 86.624C174.085 86.624 93.4686 38.0394 62.927 45.5128Z" fill="white" stroke="black" stroke-width="10"/>
<path d="M17.0809 121.347C16.3634 115.417 19.4765 109.833 24.7775 107.499C42.9118 99.5138 76.5858 85.8923 100.575 83.0256C123.25 80.3159 154.954 81.7398 173.834 83.026C180.498 83.48 185.877 88.6599 186.698 95.4445C187.81 104.637 180.094 112.752 170.62 112.218C151.543 111.142 124.608 110.367 104.193 112.807C83.3556 115.297 56.4926 125.13 37.6024 132.92C28.4934 136.676 18.2219 130.777 17.0809 121.347Z" fill="#ED2724" stroke="black" stroke-width="10"/>
</svg>
